<svg width="1166" height="422" viewBox="0 0 1166 422" fill="none" xmlns="http://www.w3.org/2000/svg">
<rect width="1166" height="422" fill="url(#paint0_linear_272_5)"/>
<g filter="url(#filter0_d_272_5)">
<path d="M300.909 129.831C303.585 119.321 318.516 119.321 321.192 129.831L334.082 180.459C335.028 184.173 337.928 187.073 341.641 188.018L392.269 200.909C402.78 203.585 402.78 218.516 392.269 221.192L341.641 234.082C337.928 235.028 335.028 237.928 334.082 241.641L321.192 292.269C318.516 302.78 303.585 302.78 300.909 292.269L288.018 241.641C287.073 237.928 284.173 235.028 280.459 234.082L229.831 221.192C219.321 218.516 219.321 203.585 229.831 200.909L280.459 188.018C284.173 187.073 287.073 184.173 288.018 180.459L300.909 129.831Z" fill="url(#paint1_linear_272_5)"/>
</g>
<path d="M521.313 256H496.623L463.745 206.367V256H439.054V167.19H463.745L496.623 217.453V167.19H521.313V256ZM602.898 219.846C602.898 221.778 602.772 223.709 602.52 225.641H555.785C556.037 229.504 557.087 232.401 558.934 234.333C560.866 236.181 563.301 237.104 566.241 237.104C570.356 237.104 573.295 235.257 575.059 231.562H601.387C600.295 236.433 598.153 240.8 594.962 244.663C591.855 248.442 587.908 251.423 583.121 253.607C578.334 255.79 573.043 256.882 567.249 256.882C560.278 256.882 554.064 255.412 548.605 252.473C543.23 249.533 538.989 245.334 535.882 239.876C532.858 234.417 531.347 227.992 531.347 220.602C531.347 213.212 532.858 206.829 535.882 201.455C538.905 195.996 543.104 191.797 548.479 188.857C553.938 185.918 560.194 184.448 567.249 184.448C574.219 184.448 580.391 185.876 585.766 188.732C591.141 191.587 595.34 195.702 598.363 201.077C601.387 206.367 602.898 212.624 602.898 219.846ZM577.704 213.674C577.704 210.65 576.696 208.299 574.681 206.619C572.665 204.856 570.146 203.974 567.123 203.974C564.099 203.974 561.622 204.814 559.69 206.493C557.759 208.089 556.499 210.482 555.911 213.674H577.704ZM637.693 195.156C639.624 191.797 642.354 189.193 645.881 187.346C649.408 185.414 653.565 184.448 658.352 184.448C663.979 184.448 669.06 185.918 673.595 188.857C678.213 191.797 681.825 195.996 684.428 201.455C687.115 206.913 688.459 213.296 688.459 220.602C688.459 227.908 687.115 234.333 684.428 239.876C681.825 245.334 678.213 249.533 673.595 252.473C669.06 255.412 663.979 256.882 658.352 256.882C653.565 256.882 649.408 255.958 645.881 254.11C642.354 252.179 639.624 249.533 637.693 246.174V256H613.003V162.781H637.693V195.156ZM663.391 220.602C663.391 215.983 662.131 212.414 659.612 209.895C657.176 207.291 654.153 205.99 650.542 205.99C646.931 205.99 643.865 207.291 641.346 209.895C638.911 212.498 637.693 216.067 637.693 220.602C637.693 225.221 638.911 228.832 641.346 231.436C643.865 234.039 646.931 235.341 650.542 235.341C654.153 235.341 657.176 234.039 659.612 231.436C662.131 228.748 663.391 225.137 663.391 220.602ZM770.931 185.33V256H746.114V245.922C744.015 249.114 741.118 251.717 737.422 253.733C733.727 255.664 729.486 256.63 724.699 256.63C716.469 256.63 709.961 253.942 705.174 248.568C700.471 243.109 698.12 235.719 698.12 226.397V185.33H722.684V223.248C722.684 227.279 723.734 230.47 725.833 232.821C728.017 235.089 730.872 236.223 734.399 236.223C738.01 236.223 740.866 235.089 742.965 232.821C745.065 230.47 746.114 227.279 746.114 223.248V185.33H770.931ZM809.673 162.781V256H784.982V162.781H809.673ZM819.702 220.602C819.702 213.296 821.004 206.913 823.607 201.455C826.295 195.996 829.906 191.797 834.441 188.857C839.06 185.918 844.183 184.448 849.809 184.448C854.68 184.448 858.879 185.414 862.406 187.346C865.934 189.277 868.663 191.881 870.594 195.156V185.33H895.285V256H870.594V246.174C868.663 249.45 865.892 252.053 862.28 253.984C858.753 255.916 854.596 256.882 849.809 256.882C844.183 256.882 839.06 255.412 834.441 252.473C829.906 249.533 826.295 245.334 823.607 239.876C821.004 234.333 819.702 227.908 819.702 220.602ZM870.594 220.602C870.594 216.067 869.335 212.498 866.815 209.895C864.38 207.291 861.357 205.99 857.745 205.99C854.05 205.99 850.985 207.291 848.55 209.895C846.114 212.414 844.896 215.983 844.896 220.602C844.896 225.137 846.114 228.748 848.55 231.436C850.985 234.039 854.05 235.341 857.745 235.341C861.357 235.341 864.38 234.039 866.815 231.436C869.335 228.832 870.594 225.221 870.594 220.602Z" fill="white"/>
<path d="M449.604 270.836V272.924H442.62V296H440.1V272.924H433.08V270.836H449.604ZM462.943 275.984C464.431 275.984 465.763 276.296 466.939 276.92C468.139 277.544 469.075 278.504 469.747 279.8C470.443 281.072 470.791 282.632 470.791 284.48V296H468.307V284.768C468.307 282.632 467.767 281 466.687 279.872C465.631 278.744 464.179 278.18 462.331 278.18C460.435 278.18 458.923 278.78 457.795 279.98C456.667 281.18 456.103 282.944 456.103 285.272V296H453.583V269.36H456.103V279.692C456.727 278.516 457.639 277.604 458.839 276.956C460.063 276.308 461.431 275.984 462.943 275.984ZM494.148 285.164C494.148 286.028 494.124 286.688 494.076 287.144H477.768C477.84 288.632 478.2 289.904 478.848 290.96C479.496 292.016 480.348 292.82 481.404 293.372C482.46 293.9 483.612 294.164 484.86 294.164C486.492 294.164 487.86 293.768 488.964 292.976C490.092 292.184 490.836 291.116 491.196 289.772H493.86C493.38 291.692 492.348 293.264 490.764 294.488C489.204 295.688 487.236 296.288 484.86 296.288C483.012 296.288 481.356 295.88 479.892 295.064C478.428 294.224 477.276 293.048 476.436 291.536C475.62 290 475.212 288.212 475.212 286.172C475.212 284.132 475.62 282.344 476.436 280.808C477.252 279.272 478.392 278.096 479.856 277.28C481.32 276.464 482.988 276.056 484.86 276.056C486.732 276.056 488.364 276.464 489.756 277.28C491.172 278.096 492.252 279.2 492.996 280.592C493.764 281.96 494.148 283.484 494.148 285.164ZM491.592 285.092C491.616 283.628 491.316 282.38 490.692 281.348C490.092 280.316 489.264 279.536 488.208 279.008C487.152 278.48 486 278.216 484.752 278.216C482.88 278.216 481.284 278.816 479.964 280.016C478.644 281.216 477.912 282.908 477.768 285.092H491.592ZM532.038 275.984C534.342 275.984 536.214 276.716 537.654 278.18C539.118 279.62 539.85 281.72 539.85 284.48V296H537.366V284.768C537.366 282.632 536.85 281 535.818 279.872C534.786 278.744 533.382 278.18 531.606 278.18C529.758 278.18 528.282 278.792 527.178 280.016C526.074 281.24 525.522 283.016 525.522 285.344V296H523.038V284.768C523.038 282.632 522.522 281 521.49 279.872C520.458 278.744 519.042 278.18 517.242 278.18C515.394 278.18 513.918 278.792 512.814 280.016C511.71 281.24 511.158 283.016 511.158 285.344V296H508.638V276.344H511.158V279.728C511.782 278.504 512.67 277.58 513.822 276.956C514.974 276.308 516.258 275.984 517.674 275.984C519.378 275.984 520.866 276.392 522.138 277.208C523.434 278.024 524.37 279.224 524.946 280.808C525.474 279.248 526.374 278.06 527.646 277.244C528.942 276.404 530.406 275.984 532.038 275.984ZM562.474 276.344V296H559.954V292.544C559.378 293.768 558.49 294.704 557.29 295.352C556.09 296 554.746 296.324 553.258 296.324C550.906 296.324 548.986 295.604 547.498 294.164C546.01 292.7 545.266 290.588 545.266 287.828V276.344H547.75V287.54C547.75 289.676 548.278 291.308 549.334 292.436C550.414 293.564 551.878 294.128 553.726 294.128C555.622 294.128 557.134 293.528 558.262 292.328C559.39 291.128 559.954 289.364 559.954 287.036V276.344H562.474ZM570.748 269.36V296H568.228V269.36H570.748ZM579.73 278.468V290.672C579.73 291.872 579.958 292.7 580.414 293.156C580.87 293.612 581.674 293.84 582.826 293.84H585.13V296H582.43C580.654 296 579.334 295.592 578.47 294.776C577.606 293.936 577.174 292.568 577.174 290.672V278.468H574.438V276.344H577.174V271.412H579.73V276.344H585.13V278.468H579.73ZM590.546 272.636C590.042 272.636 589.61 272.456 589.25 272.096C588.89 271.736 588.71 271.292 588.71 270.764C588.71 270.236 588.89 269.804 589.25 269.468C589.61 269.108 590.042 268.928 590.546 268.928C591.05 268.928 591.482 269.108 591.842 269.468C592.202 269.804 592.382 270.236 592.382 270.764C592.382 271.292 592.202 271.736 591.842 272.096C591.482 272.456 591.05 272.636 590.546 272.636ZM591.806 276.344V296H589.286V276.344H591.806ZM609.717 281.6V283.724H595.713V281.6H609.717ZM618.665 280.664C619.289 279.344 620.273 278.252 621.617 277.388C622.985 276.5 624.605 276.056 626.477 276.056C628.253 276.056 629.849 276.476 631.265 277.316C632.705 278.132 633.821 279.308 634.613 280.844C635.429 282.356 635.837 284.12 635.837 286.136C635.837 288.152 635.429 289.928 634.613 291.464C633.821 293 632.705 294.188 631.265 295.028C629.849 295.868 628.253 296.288 626.477 296.288C624.629 296.288 623.021 295.856 621.653 294.992C620.285 294.104 619.289 293 618.665 291.68V305.288H616.181V276.344H618.665V280.664ZM633.281 286.136C633.281 284.504 632.957 283.1 632.309 281.924C631.685 280.724 630.821 279.812 629.717 279.188C628.613 278.564 627.365 278.252 625.973 278.252C624.629 278.252 623.393 278.576 622.265 279.224C621.161 279.872 620.285 280.796 619.637 281.996C618.989 283.196 618.665 284.588 618.665 286.172C618.665 287.756 618.989 289.148 619.637 290.348C620.285 291.548 621.161 292.472 622.265 293.12C623.393 293.768 624.629 294.092 625.973 294.092C627.365 294.092 628.613 293.78 629.717 293.156C630.821 292.508 631.685 291.584 632.309 290.384C632.957 289.16 633.281 287.744 633.281 286.136ZM642.994 269.36V296H640.474V269.36H642.994ZM647.548 286.136C647.548 284.12 647.944 282.356 648.736 280.844C649.552 279.308 650.668 278.132 652.084 277.316C653.524 276.476 655.144 276.056 656.944 276.056C658.816 276.056 660.424 276.488 661.768 277.352C663.136 278.216 664.12 279.32 664.72 280.664V276.344H667.24V296H664.72V291.644C664.096 292.988 663.1 294.104 661.732 294.992C660.388 295.856 658.78 296.288 656.908 296.288C655.132 296.288 653.524 295.868 652.084 295.028C650.668 294.188 649.552 293 648.736 291.464C647.944 289.928 647.548 288.152 647.548 286.136ZM664.72 286.172C664.72 284.588 664.396 283.196 663.748 281.996C663.1 280.796 662.212 279.872 661.084 279.224C659.98 278.576 658.756 278.252 657.412 278.252C656.02 278.252 654.772 278.564 653.668 279.188C652.564 279.812 651.688 280.724 651.04 281.924C650.416 283.1 650.104 284.504 650.104 286.136C650.104 287.744 650.416 289.16 651.04 290.384C651.688 291.584 652.564 292.508 653.668 293.156C654.772 293.78 656.02 294.092 657.412 294.092C658.756 294.092 659.98 293.768 661.084 293.12C662.212 292.472 663.1 291.548 663.748 290.348C664.396 289.148 664.72 287.756 664.72 286.172ZM676.269 278.468V290.672C676.269 291.872 676.497 292.7 676.953 293.156C677.409 293.612 678.213 293.84 679.365 293.84H681.669V296H678.969C677.193 296 675.873 295.592 675.009 294.776C674.145 293.936 673.713 292.568 673.713 290.672V278.468H670.977V276.344H673.713V271.412H676.269V276.344H681.669V278.468H676.269ZM693.565 278.468H688.993V296H686.473V278.468H683.737V276.344H686.473V274.976C686.473 272.84 687.013 271.268 688.093 270.26C689.197 269.252 690.973 268.748 693.421 268.748V270.908C691.789 270.908 690.637 271.22 689.965 271.844C689.317 272.468 688.993 273.512 688.993 274.976V276.344H693.565V278.468ZM706.136 296.288C704.288 296.288 702.62 295.88 701.132 295.064C699.668 294.224 698.504 293.048 697.64 291.536C696.8 290 696.38 288.212 696.38 286.172C696.38 284.132 696.812 282.356 697.676 280.844C698.54 279.308 699.716 278.132 701.204 277.316C702.692 276.476 704.36 276.056 706.208 276.056C708.056 276.056 709.724 276.476 711.212 277.316C712.724 278.132 713.9 279.308 714.74 280.844C715.604 282.356 716.036 284.132 716.036 286.172C716.036 288.188 715.604 289.964 714.74 291.5C713.876 293.036 712.688 294.224 711.176 295.064C709.664 295.88 707.984 296.288 706.136 296.288ZM706.136 294.092C707.432 294.092 708.632 293.804 709.736 293.228C710.84 292.628 711.728 291.74 712.4 290.564C713.096 289.364 713.444 287.9 713.444 286.172C713.444 284.444 713.108 282.992 712.436 281.816C711.764 280.616 710.876 279.728 709.772 279.152C708.668 278.552 707.468 278.252 706.172 278.252C704.876 278.252 703.676 278.552 702.572 279.152C701.468 279.728 700.58 280.616 699.908 281.816C699.26 282.992 698.936 284.444 698.936 286.172C698.936 287.9 699.26 289.364 699.908 290.564C700.58 291.74 701.456 292.628 702.536 293.228C703.64 293.804 704.84 294.092 706.136 294.092ZM723.15 279.836C723.702 278.612 724.542 277.664 725.67 276.992C726.822 276.32 728.226 275.984 729.882 275.984V278.612H729.198C727.374 278.612 725.91 279.104 724.806 280.088C723.702 281.072 723.15 282.716 723.15 285.02V296H720.63V276.344H723.15V279.836ZM757.073 275.984C759.377 275.984 761.249 276.716 762.689 278.18C764.153 279.62 764.885 281.72 764.885 284.48V296H762.401V284.768C762.401 282.632 761.885 281 760.853 279.872C759.821 278.744 758.417 278.18 756.641 278.18C754.793 278.18 753.317 278.792 752.213 280.016C751.109 281.24 750.557 283.016 750.557 285.344V296H748.073V284.768C748.073 282.632 747.557 281 746.525 279.872C745.493 278.744 744.077 278.18 742.277 278.18C740.429 278.18 738.953 278.792 737.849 280.016C736.745 281.24 736.193 283.016 736.193 285.344V296H733.673V276.344H736.193V279.728C736.817 278.504 737.705 277.58 738.857 276.956C740.009 276.308 741.293 275.984 742.709 275.984C744.413 275.984 745.901 276.392 747.173 277.208C748.469 278.024 749.405 279.224 749.981 280.808C750.509 279.248 751.409 278.06 752.681 277.244C753.977 276.404 755.441 275.984 757.073 275.984ZM782.844 280.7C783.492 279.332 784.488 278.216 785.832 277.352C787.2 276.488 788.808 276.056 790.656 276.056C792.456 276.056 794.064 276.476 795.48 277.316C796.896 278.132 798 279.308 798.792 280.844C799.608 282.356 800.016 284.12 800.016 286.136C800.016 288.152 799.608 289.928 798.792 291.464C798 293 796.884 294.188 795.444 295.028C794.028 295.868 792.432 296.288 790.656 296.288C788.784 296.288 787.164 295.868 785.796 295.028C784.452 294.164 783.468 293.048 782.844 291.68V296H780.36V269.36H782.844V280.7ZM797.46 286.136C797.46 284.504 797.136 283.1 796.488 281.924C795.864 280.724 795 279.812 793.896 279.188C792.792 278.564 791.544 278.252 790.152 278.252C788.808 278.252 787.572 278.576 786.444 279.224C785.34 279.872 784.464 280.796 783.816 281.996C783.168 283.196 782.844 284.588 782.844 286.172C782.844 287.756 783.168 289.148 783.816 290.348C784.464 291.548 785.34 292.472 786.444 293.12C787.572 293.768 788.808 294.092 790.152 294.092C791.544 294.092 792.792 293.78 793.896 293.156C795 292.508 795.864 291.584 796.488 290.384C797.136 289.16 797.46 287.744 797.46 286.136ZM813.257 296.288C811.409 296.288 809.741 295.88 808.253 295.064C806.789 294.224 805.625 293.048 804.761 291.536C803.921 290 803.501 288.212 803.501 286.172C803.501 284.132 803.933 282.356 804.797 280.844C805.661 279.308 806.837 278.132 808.325 277.316C809.813 276.476 811.481 276.056 813.329 276.056C815.177 276.056 816.845 276.476 818.333 277.316C819.845 278.132 821.021 279.308 821.861 280.844C822.725 282.356 823.157 284.132 823.157 286.172C823.157 288.188 822.725 289.964 821.861 291.5C820.997 293.036 819.809 294.224 818.297 295.064C816.785 295.88 815.105 296.288 813.257 296.288ZM813.257 294.092C814.553 294.092 815.753 293.804 816.857 293.228C817.961 292.628 818.849 291.74 819.521 290.564C820.217 289.364 820.565 287.9 820.565 286.172C820.565 284.444 820.229 282.992 819.557 281.816C818.885 280.616 817.997 279.728 816.893 279.152C815.789 278.552 814.589 278.252 813.293 278.252C811.997 278.252 810.797 278.552 809.693 279.152C808.589 279.728 807.701 280.616 807.029 281.816C806.381 282.992 806.057 284.444 806.057 286.172C806.057 287.9 806.381 289.364 807.029 290.564C807.701 291.74 808.577 292.628 809.657 293.228C810.761 293.804 811.961 294.092 813.257 294.092ZM831.027 278.468V290.672C831.027 291.872 831.255 292.7 831.711 293.156C832.167 293.612 832.971 293.84 834.123 293.84H836.427V296H833.727C831.951 296 830.631 295.592 829.767 294.776C828.903 293.936 828.471 292.568 828.471 290.672V278.468H825.735V276.344H828.471V271.412H831.027V276.344H836.427V278.468H831.027Z" fill="white"/>
<defs>
<filter id="filter0_d_272_5" x="187.829" y="90" width="246.443" height="246.443" filterUnits="userSpaceOnUse" color-interpolation-filters="sRGB">
<feFlood flood-opacity="0" result="BackgroundImageFix"/>
<feColorMatrix in="SourceAlpha" type="matrix" values="0 0 0 0 0 0 0 0 0 0 0 0 0 0 0 0 0 0 127 0" result="hardAlpha"/>
<feOffset dy="2.1713"/>
<feGaussianBlur stdDeviation="1.08565"/>
<feComposite in2="hardAlpha" operator="out"/>
<feColorMatrix type="matrix" values="0 0 0 0 0 0 0 0 0 0 0 0 0 0 0 0 0 0 0.25 0"/>
<feBlend mode="normal" in2="BackgroundImageFix" result="effect1_dropShadow_272_5"/>
<feBlend mode="normal" in="SourceGraphic" in2="effect1_dropShadow_272_5" result="shape"/>
</filter>
<linearGradient id="paint0_linear_272_5" x1="1389.18" y1="2.75444e-06" x2="1074.3" y2="1161.83" gradientUnits="userSpaceOnUse">
<stop stop-color="#170429"/>
<stop offset="1" stop-color="#672952"/>
<stop offset="1" stop-color="#792F60" stop-opacity="0"/>
</linearGradient>
<linearGradient id="paint1_linear_272_5" x1="350.92" y1="90" x2="169.825" y2="494.942" gradientUnits="userSpaceOnUse">
<stop stop-color="#480E82"/>
<stop offset="1" stop-color="#D698FD"/>
</linearGradient>
</defs>
</svg>
